<svg width="24" height="24" viewBox="0 0 24 24" fill="none" xmlns="http://www.w3.org/2000/svg">
<path fill-rule="evenodd" clip-rule="evenodd" d="M7.5 7C7.22386 7 7 7.22386 7 7.5V8H5.5C4.67157 8 4 8.67157 4 9.5V15.5C4 15.7761 4.22386 16 4.5 16H5.07C5.29146 17.1652 6.29168 18 7.5 18C8.70832 18 9.70854 17.1652 9.93 16H14.07C14.2915 17.1652 15.2917 18 16.5 18C17.7083 18 18.7085 17.1652 18.93 16H19.5C19.7761 16 20 15.7761 20 15.5V13C20 12.6565 19.8512 12.3302 19.5947 12.1053L17.5947 10.1053C17.418 9.94217 17.209 9.82102 16.9821 9.75H15V7.5C15 7.22386 14.7761 7 14.5 7H7.5ZM14 10H17.618L19 11.382V15H18.93C18.7085 13.8348 17.7083 13 16.5 13C15.2917 13 14.2915 13.8348 14.07 14H14V10ZM13 14V9H8V14H9.93C9.70854 12.8348 8.70832 12 7.5 12C6.29168 12 5.29146 12.8348 5.07 14H5V9.5C5 9.22386 5.22386 9 5.5 9H13V14ZM7.5 14C6.67157 14 6 14.6716 6 15.5C6 16.3284 6.67157 17 7.5 17C8.32843 17 9 16.3284 9 15.5C9 14.6716 8.32843 14 7.5 14ZM16.5 14C15.6716 14 15 14.6716 15 15.5C15 16.3284 15.6716 17 16.5 17C17.3284 17 18 16.3284 18 15.5C18 14.6716 17.3284 14 16.5 14Z" fill="currentColor"/>
</svg>
